# xmcd
#
# Track frame offsets: 
#        150
#        11775
#        25500
#        34173
#        52473
#        65373
#        78873
#        89598
#        99948
#        108573
#        121548
#        134598
#        147723
#        164148
#
# Disc length: 2328 seconds
#
# Revision: 0
# Processed by: cddbd v1.5.2PL0 Copyright (c) Steve Scherf et al.
# Submitted via: ExactAudioCopy v0.99pb5
#
DISCID=c509160e
DTITLE=Ika - Sweet Path OF Gold
DYEAR=2010
DGENRE=Indie
TTITLE0=Monday Morning
TTITLE1=Bubble
TTITLE2=August Song To Heal My Heart
TTITLE3=True Love Feels Like Hell
TTITLE4=Saying Goodbye
TTITLE5=In My Room
TTITLE6=Small Town Fair
TTITLE7=Patty's Song
TTITLE8=Being Friends With Lou
TTITLE9=Take Me To The Bar
TTITLE10=Sweet Path Of Gold
TTITLE11=I'm Who You Are
TTITLE12=One More Sober Morning
TTITLE13=Us Two
EXTD=
EXTT0=
EXTT1=
EXTT2=
EXTT3=
EXTT4=
EXTT5=
EXTT6=
EXTT7=
EXTT8=
EXTT9=
EXTT10=
EXTT11=
EXTT12=
EXTT13=
PLAYORDER=
